<?xml version="1.0" standalone="no"?>
<!DOCTYPE svg PUBLIC "-//W3C//DTD SVG 20010904//EN"
 "http://www.w3.org/TR/2001/REC-SVG-20010904/DTD/svg10.dtd">
<svg version="1.0" xmlns="http://www.w3.org/2000/svg"
 width="214.000000pt" height="268.000000pt" viewBox="0 0 214.000000 268.000000"
 preserveAspectRatio="xMidYMid meet">
<metadata>
Created by potrace 1.15, written by Peter Selinger 2001-2017
</metadata>
<g transform="translate(0.000000,268.000000) scale(0.100000,-0.100000)"
fill="#000000" stroke="none">
<path d="M856 1961 c-482 -482 -657 -663 -654 -677 3 -18 19 -19 319 -22 l317
-2 -44 -148 c-270 -910 -298 -1012 -281 -1030 16 -16 56 22 682 648 366 366
665 672 665 681 0 9 -7 20 -16 23 -9 3 -150 6 -315 6 -164 0 -299 3 -299 8 0
4 76 263 169 577 171 576 175 595 132 595 -9 0 -312 -296 -675 -659z m458 -11
c-85 -289 -153 -534 -152 -545 3 -19 12 -20 301 -25 l297 -5 -585 -585 c-322
-322 -584 -578 -581 -570 3 8 75 253 161 543 124 419 154 531 144 543 -9 11
-63 14 -303 14 l-291 0 580 580 c318 318 580 578 581 577 2 -1 -67 -239 -152
-527z"/>
</g>
</svg>
