<?xml version="1.0" standalone="no"?>
<!DOCTYPE svg PUBLIC "-//W3C//DTD SVG 20010904//EN"
 "http://www.w3.org/TR/2001/REC-SVG-20010904/DTD/svg10.dtd">
<svg version="1.0" xmlns="http://www.w3.org/2000/svg"
 width="247.000000pt" height="251.000000pt" viewBox="0 0 247.000000 251.000000"
 preserveAspectRatio="xMidYMid meet">
<metadata>
Created by potrace 1.15, written by Peter Selinger 2001-2017
</metadata>
<g transform="translate(0.000000,251.000000) scale(0.100000,-0.100000)"
fill="#f2f2f2" stroke="none">
<path d="M120 1235 l0 -1125 35 0 35 0 0 535 0 535 515 0 515 0 0 -540 0 -540
35 0 35 0 0 1130 0 1130 -585 0 -585 0 0 -1125z m1100 815 l0 -240 -515 0
-515 0 0 240 0 240 515 0 515 0 0 -240z m0 -555 l0 -245 -515 0 -515 0 0 245
0 245 515 0 515 0 0 -245z"/>
<path d="M1617 1442 l-198 -198 26 -24 26 -24 172 172 172 172 263 -263 262
-262 0 -453 0 -452 35 0 35 0 0 468 0 467 -298 298 -297 297 -198 -198z"/>
<path d="M490 405 l0 -295 35 0 35 0 0 260 0 261 148 -3 147 -3 3 -257 2 -258
35 0 35 0 0 295 0 295 -220 0 -220 0 0 -295z"/>
<path d="M1600 405 l0 -295 35 0 35 0 0 260 0 260 150 0 150 0 0 -260 0 -260
35 0 35 0 0 295 0 295 -220 0 -220 0 0 -295z"/>
</g>
</svg>
