<?xml version="1.0" standalone="no"?>
<!DOCTYPE svg PUBLIC "-//W3C//DTD SVG 20010904//EN"
 "http://www.w3.org/TR/2001/REC-SVG-20010904/DTD/svg10.dtd">
<svg version="1.0" xmlns="http://www.w3.org/2000/svg"
 width="241.000000pt" height="247.000000pt" viewBox="0 0 241.000000 247.000000"
 preserveAspectRatio="xMidYMid meet">
<metadata>
Created by potrace 1.15, written by Peter Selinger 2001-2017
</metadata>
<g transform="translate(0.000000,247.000000) scale(0.100000,-0.100000)"
fill="#000000" stroke="none">
<path d="M1020 2319 c-74 -11 -241 -64 -315 -101 -275 -137 -480 -377 -574
-671 -39 -121 -51 -201 -51 -342 0 -193 35 -335 125 -513 207 -407 649 -648
1104 -603 309 31 580 179 776 424 78 98 165 268 200 390 68 240 49 522 -49
749 -154 355 -477 606 -859 668 -51 8 -64 7 -76 -5 -25 -25 7 -45 98 -61 448
-78 800 -456 863 -926 23 -170 -21 -428 -99 -583 -170 -337 -481 -554 -852
-595 -437 -49 -865 187 -1063 585 -84 168 -112 308 -105 515 4 115 10 165 31
240 51 183 140 335 275 471 182 181 417 290 659 306 97 6 130 19 119 47 -5 13
-20 16 -79 15 -40 -1 -98 -5 -128 -10z"/>
<path d="M1182 2058 c-9 -9 -12 -115 -12 -415 l0 -403 -314 0 c-265 0 -315 -2
-326 -15 -7 -8 -10 -22 -6 -30 5 -13 49 -15 353 -13 l348 3 3 434 c2 341 0
436 -10 443 -17 10 -22 10 -36 -4z"/>
</g>
</svg>
