<?xml version="1.0" standalone="no"?>
<!DOCTYPE svg PUBLIC "-//W3C//DTD SVG 20010904//EN"
 "http://www.w3.org/TR/2001/REC-SVG-20010904/DTD/svg10.dtd">
<svg version="1.0" xmlns="http://www.w3.org/2000/svg"
 width="310.000000pt" height="317.000000pt" viewBox="0 0 310.000000 317.000000"
 preserveAspectRatio="xMidYMid meet">
<metadata>
Created by potrace 1.15, written by Peter Selinger 2001-2017
</metadata>
<g transform="translate(0.000000,317.000000) scale(0.100000,-0.100000)"
fill="#000000" stroke="none">
<path d="M1505 2974 c-114 -16 -241 -37 -246 -40 -11 -7 17 -99 30 -96 125 27
209 34 361 29 178 -6 252 -20 415 -77 186 -66 344 -167 490 -314 206 -207 345
-480 384 -751 16 -105 13 -340 -4 -439 -46 -266 -172 -510 -362 -707 -187
-193 -427 -329 -671 -380 -205 -43 -393 -44 -592 -3 -379 79 -725 346 -908
701 -107 209 -152 390 -152 618 0 231 53 443 161 644 50 93 136 215 183 261
l36 34 110 -109 110 -110 0 258 0 257 -257 0 -258 0 109 -109 109 -110 -58
-68 c-180 -210 -294 -465 -335 -751 -16 -109 -7 -391 15 -492 63 -288 202
-537 412 -741 106 -104 178 -158 301 -229 562 -322 1279 -224 1739 238 118
117 187 210 257 342 183 348 222 737 110 1106 -77 256 -192 443 -390 635 -265
256 -575 385 -969 402 -55 3 -113 3 -130 1z"/>
<path d="M1570 2016 l0 -484 -220 -215 c-121 -118 -220 -219 -220 -224 0 -6 9
-18 20 -28 19 -17 25 -12 255 211 l235 228 0 498 0 498 -35 0 -35 0 0 -484z"/>
</g>
</svg>
