<?xml version="1.0" standalone="no"?>
<!DOCTYPE svg PUBLIC "-//W3C//DTD SVG 20010904//EN"
 "http://www.w3.org/TR/2001/REC-SVG-20010904/DTD/svg10.dtd">
<svg version="1.0" xmlns="http://www.w3.org/2000/svg"
 width="238.000000pt" height="270.000000pt" viewBox="0 0 238.000000 270.000000"
 preserveAspectRatio="xMidYMid meet">
<metadata>
Created by potrace 1.15, written by Peter Selinger 2001-2017
</metadata>
<g transform="translate(0.000000,270.000000) scale(0.100000,-0.100000)"
fill="#000000" stroke="none">
<path d="M180 1360 l0 -1190 1040 0 1040 0 0 1190 0 1190 -1040 0 -1040 0 0
-1190z m2020 0 l0 -1130 -980 0 -980 0 0 1130 0 1130 980 0 980 0 0 -1130z"/>
<path d="M790 1880 l0 -30 580 0 580 0 0 30 0 30 -580 0 -580 0 0 -30z"/>
<path d="M790 1340 l0 -30 580 0 580 0 0 30 0 30 -580 0 -580 0 0 -30z"/>
<path d="M790 810 l0 -30 580 0 580 0 0 30 0 30 -580 0 -580 0 0 -30z"/>
</g>
</svg>
