<?xml version="1.0" standalone="no"?>
<!DOCTYPE svg PUBLIC "-//W3C//DTD SVG 20010904//EN"
 "http://www.w3.org/TR/2001/REC-SVG-20010904/DTD/svg10.dtd">
<svg version="1.0" xmlns="http://www.w3.org/2000/svg"
 width="154.000000pt" height="306.000000pt" viewBox="0 0 154.000000 306.000000"
 preserveAspectRatio="xMidYMid meet">
<metadata>
Created by potrace 1.15, written by Peter Selinger 2001-2017
</metadata>
<g transform="translate(0.000000,306.000000) scale(0.100000,-0.100000)"
fill="#000000" stroke="none">
<path d="M796 3004 c-14 -13 -16 -50 -16 -247 l0 -233 -85 -11 c-147 -20 -263
-103 -324 -233 -23 -48 -26 -68 -26 -160 0 -170 -10 -156 445 -615 248 -250
394 -404 406 -430 14 -29 19 -62 19 -120 0 -67 -5 -88 -27 -130 -33 -64 -80
-108 -143 -137 -48 -22 -61 -23 -365 -26 -199 -2 -319 -7 -327 -14 -20 -16
-16 -66 6 -78 12 -6 101 -10 220 -10 l201 0 0 -240 c0 -231 1 -240 21 -250 11
-6 30 -10 42 -8 41 6 47 39 47 274 l0 222 68 4 c82 4 175 45 244 107 89 79
142 238 119 353 -26 124 -36 136 -446 548 -426 427 -428 430 -428 550 -1 119
73 230 181 270 48 18 78 20 352 20 164 0 306 3 315 6 27 11 38 53 20 80 -15
24 -16 24 -220 24 l-205 0 0 221 c0 216 -5 252 -34 271 -18 12 -44 9 -60 -8z"/>
</g>
</svg>
