<?xml version="1.0" standalone="no"?>
<!DOCTYPE svg PUBLIC "-//W3C//DTD SVG 20010904//EN"
 "http://www.w3.org/TR/2001/REC-SVG-20010904/DTD/svg10.dtd">
<svg version="1.0" xmlns="http://www.w3.org/2000/svg"
 width="167.000000pt" height="281.000000pt" viewBox="0 0 167.000000 281.000000"
 preserveAspectRatio="xMidYMid meet">
<metadata>
Created by potrace 1.15, written by Peter Selinger 2001-2017
</metadata>
<g transform="translate(0.000000,281.000000) scale(0.100000,-0.100000)"
fill="#f2f2f2" stroke="none">
<path d="M795 2643 c-342 -414 -565 -823 -620 -1142 -17 -102 -21 -301 -6
-376 38 -196 119 -325 260 -420 83 -55 237 -112 326 -121 l65 -7 0 -259 c0
-230 2 -259 16 -265 9 -3 24 -2 33 4 14 9 16 43 19 267 l2 256 28 0 c42 0 147
27 221 57 209 83 338 232 388 448 26 115 24 338 -5 457 -65 267 -189 521 -395
815 -60 85 -246 325 -272 351 -2 2 -29 -27 -60 -65z m258 -308 c210 -292 345
-570 397 -814 19 -89 22 -124 17 -255 -5 -162 -18 -221 -71 -325 -74 -144
-259 -262 -449 -286 l-57 -7 0 158 0 159 135 135 c134 134 157 169 119 184
-29 11 -37 6 -145 -101 l-109 -107 0 206 0 205 95 92 c100 97 118 132 74 146
-17 6 -36 -7 -95 -66 l-74 -73 0 254 c0 140 -4 261 -9 268 -4 8 -19 12 -32 10
l-24 -3 -3 -264 -2 -264 -74 71 c-41 40 -80 72 -88 72 -18 0 -38 -20 -38 -38
0 -8 45 -61 100 -117 l100 -101 0 -204 0 -205 -113 113 c-116 115 -149 134
-162 91 -6 -18 16 -45 134 -163 l141 -141 0 -159 0 -158 -52 7 c-115 16 -242
67 -328 132 -208 158 -267 502 -149 870 83 259 219 497 466 821 l94 123 58
-73 c32 -40 97 -127 144 -193z"/>
</g>
</svg>
