<?xml version="1.0" standalone="no"?>
<!DOCTYPE svg PUBLIC "-//W3C//DTD SVG 20010904//EN"
 "http://www.w3.org/TR/2001/REC-SVG-20010904/DTD/svg10.dtd">
<svg version="1.0" xmlns="http://www.w3.org/2000/svg"
 width="257.000000pt" height="171.000000pt" viewBox="0 0 257.000000 171.000000"
 preserveAspectRatio="xMidYMid meet">
<metadata>
Created by potrace 1.15, written by Peter Selinger 2001-2017
</metadata>
<g transform="translate(0.000000,171.000000) scale(0.100000,-0.100000)"
fill="#000000" stroke="none">
<path d="M180 1600 c-20 -5 -49 -24 -67 -44 l-33 -36 0 -247 c0 -361 -16 -345
350 -341 l250 3 31 31 c16 17 34 48 39 70 12 50 12 407 1 458 -12 51 -53 92
-106 105 -50 13 -412 13 -465 1z m501 -76 c24 -26 24 -26 24 -261 l0 -235 -28
-24 c-28 -24 -29 -24 -263 -24 l-235 0 -24 25 -25 24 0 236 0 236 25 24 24 25
239 0 239 0 24 -26z"/>
<path d="M1035 1601 c-53 -13 -76 -32 -96 -74 -16 -37 -19 -68 -19 -260 0
-241 4 -264 59 -310 l33 -27 246 0 c355 0 342 -13 342 337 0 342 5 337 -320
340 -118 1 -228 -2 -245 -6z m490 -76 l25 -24 0 -236 0 -236 -25 -24 -24 -25
-236 0 -237 0 -29 29 -29 29 0 227 0 227 29 29 29 29 237 0 236 0 24 -25z"/>
<path d="M1872 1600 c-18 -4 -42 -16 -53 -26 -46 -42 -49 -60 -49 -311 0 -349
-14 -335 350 -331 l249 3 30 29 c17 17 36 46 41 65 13 47 13 425 0 472 -13 45
-54 84 -105 98 -45 12 -412 13 -463 1z m496 -70 c30 -29 34 -60 30 -293 l-3
-209 -28 -24 c-28 -24 -29 -24 -263 -24 l-235 0 -24 25 -25 24 0 236 0 236 25
24 24 25 239 0 c224 0 239 -1 260 -20z"/>
<path d="M155 790 c-73 -36 -75 -46 -75 -320 0 -275 2 -285 77 -321 39 -19 57
-20 275 -17 333 4 323 -7 323 338 0 249 -5 274 -59 313 -30 21 -41 22 -266 25
-219 2 -238 1 -275 -18z m500 -44 c26 -11 36 -23 44 -53 14 -49 14 -397 0
-446 -17 -63 -43 -69 -299 -65 -215 3 -219 3 -244 27 l-26 24 0 237 c0 233 0
237 23 257 12 11 29 23 37 26 8 3 109 6 223 6 158 1 216 -2 242 -13z"/>
<path d="M1001 792 c-19 -9 -44 -30 -55 -45 -20 -27 -21 -41 -21 -277 0 -236
1 -250 21 -277 43 -58 67 -63 314 -63 252 0 275 5 317 69 22 33 23 41 23 271
0 230 -1 238 -23 271 -42 64 -65 69 -317 69 -194 0 -230 -2 -259 -18z m525
-65 c24 -28 24 -30 24 -257 0 -227 0 -229 -24 -257 l-24 -28 -226 -3 c-246 -3
-277 2 -296 54 -13 33 -13 435 0 468 19 51 44 56 293 53 l229 -2 24 -28z"/>
<path d="M2117 763 c-4 -3 -7 -66 -7 -139 l0 -133 -137 -3 c-135 -3 -138 -4
-141 -25 -3 -23 -3 -23 137 -23 l140 0 3 -137 c3 -135 4 -138 26 -141 22 -3
22 -3 22 137 l0 141 139 0 c77 0 142 4 145 9 4 5 3 16 0 25 -5 14 -27 16 -145
16 l-139 0 0 140 c0 129 -1 140 -18 140 -10 0 -22 -3 -25 -7z"/>
</g>
</svg>
