<?xml version="1.0" standalone="no"?>
<!DOCTYPE svg PUBLIC "-//W3C//DTD SVG 20010904//EN"
 "http://www.w3.org/TR/2001/REC-SVG-20010904/DTD/svg10.dtd">
<svg version="1.0" xmlns="http://www.w3.org/2000/svg"
 width="320.000000pt" height="296.000000pt" viewBox="0 0 320.000000 296.000000"
 preserveAspectRatio="xMidYMid meet">
<metadata>
Created by potrace 1.15, written by Peter Selinger 2001-2017
</metadata>
<g transform="translate(0.000000,296.000000) scale(0.100000,-0.100000)"
fill="#f2f2f2" stroke="none">
<path d="M1565 2851 c-17 -10 -42 -31 -56 -48 -40 -48 -211 -351 -207 -369 5
-25 35 -41 54 -29 10 6 60 85 113 177 53 91 102 173 110 182 18 21 66 21 89
-2 10 -10 88 -139 173 -287 86 -149 253 -439 373 -647 119 -207 224 -379 232
-382 22 -8 54 11 54 32 0 10 -115 218 -256 463 -141 244 -308 534 -371 644
-63 110 -127 213 -142 228 -53 58 -112 72 -166 38z"/>
<path d="M1114 2638 c-5 -7 -12 -134 -17 -283 -8 -269 -8 -270 13 -287 21 -17
24 -16 83 16 34 18 100 53 147 78 233 124 282 152 287 164 2 7 -1 22 -7 34
-16 30 -43 23 -165 -43 -55 -29 -140 -75 -188 -101 l-89 -47 3 228 c2 126 -1
234 -5 241 -9 16 -53 16 -62 0z"/>
<path d="M953 1842 c-6 -4 -94 -151 -196 -327 -101 -176 -264 -459 -362 -630
-214 -373 -225 -393 -225 -437 0 -47 36 -98 85 -123 34 -17 66 -20 223 -23
214 -5 267 1 283 29 8 16 7 25 -7 40 -16 18 -33 19 -239 19 -250 0 -260 2
-258 64 1 20 5 42 11 49 5 7 61 102 124 212 64 110 228 397 367 637 138 241
251 449 251 462 0 30 -30 45 -57 28z"/>
<path d="M2610 1185 c-17 -20 -6 -551 12 -572 14 -17 33 -16 52 2 13 13 14 47
9 240 -4 159 -3 225 5 225 6 0 97 -47 202 -105 105 -58 196 -105 203 -105 36
0 48 47 20 72 -27 24 -459 258 -476 258 -8 0 -20 -7 -27 -15z"/>
<path d="M2798 913 c-41 -10 -30 -42 81 -236 116 -201 128 -238 93 -270 -17
-16 -86 -17 -783 -17 -811 0 -806 0 -797 -45 8 -44 14 -45 789 -45 628 0 743
2 786 15 89 27 132 105 100 185 -25 65 -220 401 -236 409 -9 4 -24 6 -33 4z"/>
<path d="M602 638 c-22 -22 -13 -52 21 -74 17 -11 105 -62 195 -113 89 -51
164 -96 166 -100 3 -4 -83 -58 -190 -120 -108 -62 -198 -120 -201 -129 -8 -19
9 -46 30 -50 17 -4 466 248 487 273 26 32 -1 54 -234 189 -128 75 -240 136
-248 136 -8 0 -19 -5 -26 -12z"/>
</g>
</svg>
