<?xml version="1.0" standalone="no"?>
<!DOCTYPE svg PUBLIC "-//W3C//DTD SVG 20010904//EN"
 "http://www.w3.org/TR/2001/REC-SVG-20010904/DTD/svg10.dtd">
<svg version="1.0" xmlns="http://www.w3.org/2000/svg"
 width="261.000000pt" height="235.000000pt" viewBox="0 0 261.000000 235.000000"
 preserveAspectRatio="xMidYMid meet">
<metadata>
Created by potrace 1.15, written by Peter Selinger 2001-2017
</metadata>
<g transform="translate(0.000000,235.000000) scale(0.100000,-0.100000)"
fill="#000000" stroke="none">
<path d="M1851 2154 c-126 -34 -249 -132 -306 -243 -30 -60 -55 -163 -55 -231
0 -25 8 -75 18 -112 l19 -66 -509 -509 c-334 -334 -515 -522 -528 -549 -44
-90 -9 -192 82 -240 32 -17 120 -18 151 -3 12 6 254 243 539 527 l516 515 66
-17 c138 -34 276 -13 392 62 77 50 128 109 172 200 31 65 36 86 40 170 5 109
-6 165 -32 170 -11 2 -56 -34 -126 -102 -85 -82 -118 -107 -152 -117 -150 -40
-284 88 -247 237 11 42 28 65 123 162 92 95 108 116 100 130 -6 9 -24 20 -40
23 -52 12 -168 8 -223 -7z m169 -52 c0 -4 -34 -41 -76 -82 -91 -89 -117 -140
-118 -226 0 -172 160 -289 329 -240 48 15 70 30 145 102 82 79 88 83 92 60 9
-45 -12 -151 -42 -212 -70 -143 -215 -234 -374 -234 -34 0 -94 10 -134 22
l-73 21 -533 -531 -532 -532 -47 0 c-55 0 -91 20 -113 61 -18 36 -18 73 0 107
8 15 247 259 530 542 296 296 516 523 516 533 0 10 -9 46 -21 80 -17 49 -20
77 -16 137 12 180 125 327 294 380 58 19 173 27 173 12z"/>
</g>
</svg>
